<?xml version="1.0" standalone="no"?>
<!DOCTYPE svg PUBLIC "-//W3C//DTD SVG 20010904//EN"
 "http://www.w3.org/TR/2001/REC-SVG-20010904/DTD/svg10.dtd">
<svg version="1.0" xmlns="http://www.w3.org/2000/svg"
 width="481.000000pt" height="320.000000pt" viewBox="0 0 481.000000 320.000000"
 preserveAspectRatio="xMidYMid meet">
<metadata>
Created by potrace 1.16, written by Peter Selinger 2001-2019
</metadata>
<g transform="translate(0.000000,320.000000) scale(0.100000,-0.100000)"
fill="#000000" stroke="none">
<path d="M390 1590 l0 -1160 2020 0 2020 0 0 1160 0 1160 -2020 0 -2020 0 0
-1160z m4020 0 l0 -1140 -2000 0 -2000 0 0 1140 0 1140 2000 0 2000 0 0 -1140z"/>
<path d="M450 1590 l0 -1100 1960 0 1960 0 0 1100 0 1100 -1960 0 -1960 0 0
-1100z m3900 0 l0 -1080 -1940 0 -1940 0 0 1080 0 1080 1940 0 1940 0 0 -1080z"/>
<path d="M1010 2135 l0 -185 35 0 35 0 0 75 0 75 45 0 45 0 0 -75 0 -75 35 0
35 0 0 186 0 185 -32 -3 -33 -3 -3 -73 -3 -73 -42 3 -42 3 -3 73 -3 72 -34 0
-35 0 0 -185z"/>
<path d="M1503 2304 c-42 -21 -53 -57 -53 -171 0 -150 24 -183 130 -183 93 0
118 26 127 129 8 97 -4 176 -31 208 -19 22 -33 27 -82 30 -41 3 -69 -1 -91
-13z m115 -77 c19 -15 16 -171 -4 -191 -18 -19 -55 -21 -72 -4 -13 13 -17 175
-4 194 15 23 50 24 80 1z"/>
<path d="M1917 2314 c-4 -4 -7 -88 -7 -186 l0 -178 100 0 100 0 0 35 0 35 -60
0 -59 0 -3 148 -3 147 -30 3 c-17 2 -34 0 -38 -4z"/>
<path d="M2300 2136 l0 -186 79 0 c152 0 171 21 171 189 0 108 -1 112 -29 143
-28 31 -31 32 -125 36 l-96 4 0 -186z m168 86 c7 -9 12 -46 12 -89 0 -86 -18
-113 -75 -113 l-35 0 0 108 c0 60 3 112 7 116 12 12 77 -4 91 -22z"/>
<path d="M3080 2136 l0 -186 35 0 35 0 1 98 0 97 27 -95 c25 -86 30 -95 52
-98 24 -3 28 3 57 95 l31 98 1 -97 1 -98 35 0 35 0 -2 183 -3 182 -40 0 -40 0
-37 -110 c-20 -62 -39 -103 -42 -95 -3 8 -18 58 -34 110 l-27 95 -43 3 -42 3
0 -185z"/>
<path d="M3580 2306 c0 -8 18 -53 40 -101 37 -80 40 -94 40 -171 l0 -84 35 0
35 0 0 86 c0 77 4 94 40 179 22 52 40 96 40 99 0 4 -16 6 -35 6 -31 0 -37 -5
-58 -47 l-24 -46 -28 46 c-22 39 -32 47 -56 47 -18 0 -29 -5 -29 -14z"/>
<path d="M1146 1833 c-10 -33 -136 -504 -136 -508 0 -3 24 -5 54 -5 l53 0 14
53 14 52 61 3 61 3 13 -56 13 -55 54 0 c29 0 53 3 53 8 0 4 -31 122 -69 262
l-68 255 -56 3 c-46 2 -56 0 -61 -15z"/>
<path d="M1680 1585 l0 -265 55 0 55 0 0 128 1 127 56 -127 57 -128 53 0 53 0
0 265 0 265 -55 0 -55 0 0 -127 -1 -128 -56 128 -56 127 -53 0 -54 0 0 -265z"/>
<path d="M2330 1586 l0 -266 55 0 55 0 -2 263 -3 262 -52 3 -53 3 0 -265z"/>
<path d="M2750 1585 l0 -265 50 0 50 0 0 143 c0 79 4 135 9 127 4 -8 23 -73
42 -143 l34 -128 40 3 40 3 40 139 40 139 3 -141 3 -142 49 0 50 0 0 265 0
265 -59 0 -60 0 -52 -160 c-29 -87 -56 -154 -60 -148 -4 5 -26 77 -50 159
l-43 149 -63 0 -63 0 0 -265z"/>
<path d="M3520 1585 l0 -265 145 0 145 0 0 50 0 50 -90 0 -90 0 0 60 0 60 70
0 70 0 0 50 0 50 -70 0 -70 0 0 55 0 55 90 0 90 0 0 50 0 50 -145 0 -145 0 0
-265z"/>
</g>
</svg>
